<?xml version="1.0" encoding="iso-8859-1"?>
<!-- Generator: Adobe Illustrator 19.0.0, SVG Export Plug-In . SVG Version: 6.00 Build 0)  -->
<svg height="32px" width="32px" version="1.1" id="Layer_1" xmlns="http://www.w3.org/2000/svg" xmlns:xlink="http://www.w3.org/1999/xlink" x="0px" y="0px"
	 viewBox="0 0 512 512" style="enable-background:new 0 0 512 512;" xml:space="preserve">
<g>
	<g>
		<g>
			<path d="M511.179,6.592c-1.647-3.986-5.533-6.587-9.845-6.592H362.667C356.776,0,352,4.776,352,10.667
				c0,5.891,4.776,10.667,10.667,10.667h112.917L291.125,205.792c-4.237,4.093-4.354,10.845-0.262,15.083s10.845,4.354,15.083,0.262
				c0.089-0.086,0.176-0.173,0.262-0.262L490.667,36.416v112.917c0,5.891,4.776,10.667,10.667,10.667S512,155.224,512,149.333
				V10.667C511.996,9.268,511.717,7.883,511.179,6.592z"/>
			<path d="M205.792,291.125L21.333,475.584V362.667c0-5.891-4.776-10.667-10.667-10.667C4.776,352,0,356.776,0,362.667v138.667
				C0,507.224,4.776,512,10.667,512h138.667c5.891,0,10.667-4.776,10.667-10.667s-4.776-10.667-10.667-10.667H36.416
				l184.459-184.459c4.093-4.237,3.976-10.99-0.262-15.083C216.479,287.133,209.926,287.133,205.792,291.125z"/>
		</g>
	</g>
</g>
<g>
</g>
<g>
</g>
<g>
</g>
<g>
</g>
<g>
</g>
<g>
</g>
<g>
</g>
<g>
</g>
<g>
</g>
<g>
</g>
<g>
</g>
<g>
</g>
<g>
</g>
<g>
</g>
<g>
</g>
</svg>
