<?xml version="1.0" encoding="utf-8"?>
<!-- Generator: Adobe Illustrator 16.0.0, SVG Export Plug-In . SVG Version: 6.00 Build 0)  -->
<!DOCTYPE svg PUBLIC "-//W3C//DTD SVG 1.0//EN" "http://www.w3.org/TR/2001/REC-SVG-20010904/DTD/svg10.dtd">
<svg version="1.0" id="Layer_1" xmlns="http://www.w3.org/2000/svg" xmlns:xlink="http://www.w3.org/1999/xlink" x="0px" y="0px"
	 width="32px" height="32px" viewBox="0 0 100 100" enable-background="new 0 0 100 100" xml:space="preserve">
<path d="M63.333,36.667c-14.727,0-26.666,11.94-26.666,26.667C36.667,78.063,48.606,90,63.333,90C78.063,90,90,78.063,90,63.334
	C90,48.607,78.063,36.667,63.333,36.667z M63.333,43.333c1.84,0,3.334,1.494,3.334,3.333c0,1.839-1.494,3.333-3.334,3.333
	C61.494,50,60,48.506,60,46.667C60,44.828,61.494,43.333,63.333,43.333z M50,76.667c-1.839,0-3.333-1.494-3.333-3.334
	C46.667,71.494,48.161,70,50,70s3.333,1.494,3.333,3.333C53.333,75.173,51.839,76.667,50,76.667z M50,56.666
	c-1.839,0-3.333-1.494-3.333-3.332C46.667,51.494,48.161,50,50,50s3.333,1.494,3.333,3.334C53.333,55.172,51.839,56.666,50,56.666z
	 M60,66.666c-1.839,0-3.333-1.494-3.333-3.332C56.667,61.494,58.161,60,60,60s3.333,1.494,3.333,3.334
	C63.333,65.172,61.839,66.666,60,66.666z M66.667,83.333c-1.84,0-3.334-1.494-3.334-3.333s1.494-3.333,3.334-3.333
	C68.506,76.667,70,78.161,70,80S68.506,83.333,66.667,83.333z M73.333,73.333C71.494,73.333,70,71.839,70,70
	c0-1.84,1.494-3.334,3.333-3.334c1.84,0,3.334,1.494,3.334,3.334C76.667,71.839,75.173,73.333,73.333,73.333z M80,60
	c-1.839,0-3.333-1.494-3.333-3.334c0-1.838,1.494-3.332,3.333-3.332s3.333,1.494,3.333,3.332C83.333,58.506,81.839,60,80,60z"/>
<path d="M36.667,10C21.94,10,10,21.94,10,36.667c0,12.438,8.528,22.855,20.046,25.804c0.455-17.689,14.732-31.969,32.425-32.428
	C59.521,18.525,49.104,10,36.667,10z M16.667,33.333C16.667,31.498,18.164,30,20,30s3.333,1.498,3.333,3.333
	S21.836,36.667,20,36.667S16.667,35.169,16.667,33.333z M23.333,53.334C21.497,53.334,20,51.836,20,50s1.497-3.333,3.333-3.333
	s3.334,1.498,3.334,3.333S25.169,53.334,23.333,53.334z M33.333,36.667c-1.836,0-3.333-1.497-3.333-3.333S31.497,30,33.333,30
	s3.334,1.498,3.334,3.333S35.169,36.667,33.333,36.667z M36.667,23.333c-1.836,0-3.334-1.498-3.334-3.333s1.498-3.333,3.334-3.333
	S40,18.164,40,20S38.503,23.333,36.667,23.333z M50,26.667c-1.836,0-3.333-1.497-3.333-3.333S48.164,20,50,20
	s3.333,1.498,3.333,3.333S51.836,26.667,50,26.667z"/>
</svg>
