<svg xmlns="http://www.w3.org/2000/svg" xmlns:xlink="http://www.w3.org/1999/xlink" version="1.1" width="36px" height="36px" viewBox="0 0 256 256" xml:space="preserve">
<desc>Created with Fabric.js 1.7.22</desc>
<defs>
</defs>
<g transform="translate(128 128) scale(0.72 0.72)" style="">
	<g style="stroke: none; stroke-width: 0; stroke-dasharray: none; stroke-linecap: butt; stroke-linejoin: miter; stroke-miterlimit: 10; fill: none; fill-rule: nonzero; opacity: 1;" transform="translate(-175.05 -175.05000000000004) scale(3.89 3.89)" >
	<path d="M 45 45.341 c -8.617 0 -15.626 -7.01 -15.626 -15.626 v -8.604 c 0 -8.617 7.01 -15.626 15.626 -15.626 c 8.616 0 15.626 7.01 15.626 15.626 v 8.604 C 60.626 38.331 53.616 45.341 45 45.341 z M 45 7.485 c -7.514 0 -13.626 6.113 -13.626 13.626 v 8.604 c 0 7.513 6.113 13.626 13.626 13.626 s 13.626 -6.113 13.626 -13.626 v -8.604 C 58.626 13.598 52.514 7.485 45 7.485 z" style="stroke: none; stroke-width: 1; stroke-dasharray: none; stroke-linecap: butt; stroke-linejoin: miter; stroke-miterlimit: 10; fill: rgb(255,255,255); fill-rule: nonzero; opacity: 1;" transform=" matrix(1 0 0 1 0 0) " stroke-linecap="round" />
	<path d="M 68.014 84.515 H 21.985 c -0.552 0 -1 -0.447 -1 -1 V 81.88 c 0 -0.553 0.448 -1 1 -1 s 1 0.447 1 1 v 0.635 h 44.029 v -15.16 c 0 -12.138 -9.876 -22.014 -22.014 -22.014 c -4.471 0 -8.775 1.333 -12.447 3.853 c -0.456 0.314 -1.078 0.197 -1.39 -0.258 c -0.313 -0.456 -0.197 -1.078 0.258 -1.391 c 4.006 -2.751 8.701 -4.205 13.578 -4.205 c 13.242 0 24.014 10.772 24.014 24.014 v 16.16 C 69.014 84.068 68.567 84.515 68.014 84.515 z" style="stroke: none; stroke-width: 1; stroke-dasharray: none; stroke-linecap: butt; stroke-linejoin: miter; stroke-miterlimit: 10; fill: rgb(255,255,255); fill-rule: nonzero; opacity: 1;" transform=" matrix(1 0 0 1 0 0) " stroke-linecap="round" />
	<path d="M 20.164 20.747 c -0.108 0 -0.215 -0.021 -0.316 -0.063 c -0.204 -0.085 -0.363 -0.244 -0.447 -0.447 c -0.049 -0.117 -0.142 -0.142 -0.212 -0.142 c -0.142 0 -0.257 -0.115 -0.257 -0.257 c 0 -0.142 0.115 -0.257 0.257 -0.257 c 0.24 0 0.547 0.121 0.687 0.459 c 0.032 0.077 0.092 0.137 0.169 0.169 c 0.078 0.032 0.162 0.032 0.239 0 l 0.895 -0.371 c 0.077 -0.032 0.137 -0.092 0.169 -0.169 c 0.032 -0.077 0.032 -0.162 0 -0.238 c -0.141 -0.34 -0.009 -0.642 0.162 -0.811 c 0.168 -0.169 0.47 -0.302 0.81 -0.161 c 0.078 0.032 0.162 0.032 0.239 0 c 0.077 -0.032 0.137 -0.092 0.169 -0.169 l 0.371 -0.895 c 0.032 -0.077 0.032 -0.161 0 -0.239 c -0.032 -0.077 -0.092 -0.137 -0.169 -0.169 c -0.339 -0.14 -0.459 -0.447 -0.459 -0.687 s 0.12 -0.547 0.459 -0.687 c 0.077 -0.032 0.137 -0.092 0.169 -0.169 s 0.032 -0.162 0 -0.239 l -0.371 -0.895 c -0.032 -0.077 -0.092 -0.137 -0.169 -0.169 c -0.077 -0.032 -0.162 -0.032 -0.238 0 c -0.339 0.14 -0.641 0.009 -0.811 -0.161 c -0.17 -0.169 -0.302 -0.471 -0.161 -0.811 c 0.032 -0.077 0.032 -0.162 0 -0.239 c -0.032 -0.077 -0.092 -0.137 -0.169 -0.169 l -0.895 -0.371 c -0.077 -0.032 -0.162 -0.032 -0.238 0 c -0.077 0.032 -0.137 0.092 -0.169 0.169 c -0.141 0.339 -0.447 0.46 -0.688 0.46 s -0.547 -0.12 -0.687 -0.459 c -0.066 -0.159 -0.249 -0.235 -0.408 -0.169 l -0.895 0.371 c -0.077 0.032 -0.137 0.092 -0.168 0.168 c -0.054 0.132 -0.205 0.193 -0.336 0.14 c -0.131 -0.054 -0.194 -0.205 -0.14 -0.336 c 0.084 -0.204 0.243 -0.363 0.447 -0.448 l 0.895 -0.371 c 0.421 -0.174 0.905 0.026 1.08 0.447 c 0.051 0.123 0.155 0.142 0.212 0.142 c 0.057 0 0.161 -0.018 0.212 -0.142 c 0.084 -0.204 0.243 -0.363 0.447 -0.447 c 0.204 -0.085 0.428 -0.085 0.632 0 l 0.895 0.371 c 0.204 0.085 0.363 0.243 0.447 0.447 c 0.085 0.204 0.085 0.429 0 0.633 c -0.051 0.124 0.009 0.209 0.049 0.25 c 0.05 0.05 0.133 0.099 0.251 0.05 c 0.204 -0.084 0.428 -0.084 0.633 0 c 0.204 0.085 0.363 0.243 0.447 0.447 l 0.371 0.895 c 0.085 0.204 0.085 0.429 0 0.633 c -0.085 0.204 -0.244 0.363 -0.447 0.447 c -0.123 0.051 -0.142 0.155 -0.142 0.212 c 0 0.057 0.018 0.161 0.142 0.212 c 0.204 0.085 0.362 0.243 0.447 0.447 c 0.084 0.204 0.084 0.429 0 0.632 l -0.371 0.895 c -0.084 0.204 -0.243 0.363 -0.447 0.447 c -0.205 0.085 -0.429 0.084 -0.633 0 c -0.124 -0.051 -0.21 0.009 -0.25 0.049 c -0.041 0.041 -0.102 0.127 -0.05 0.251 c 0.084 0.203 0.084 0.428 0 0.632 c -0.085 0.204 -0.243 0.363 -0.447 0.447 l -0.895 0.371 C 20.379 20.726 20.272 20.747 20.164 20.747 z M 19.188 18.128 c -0.142 0 -0.257 -0.115 -0.257 -0.257 c 0 -0.142 0.115 -0.257 0.257 -0.257 c 0.725 0 1.314 -0.589 1.314 -1.314 c 0 -0.725 -0.59 -1.314 -1.314 -1.314 c -0.207 0 -0.406 0.047 -0.589 0.14 c -0.127 0.064 -0.282 0.013 -0.345 -0.113 c -0.064 -0.127 -0.013 -0.281 0.113 -0.345 c 0.253 -0.128 0.536 -0.195 0.821 -0.195 c 1.008 0 1.829 0.82 1.829 1.829 C 21.017 17.308 20.197 18.128 19.188 18.128 z" style="stroke: none; stroke-width: 1; stroke-dasharray: none; stroke-linecap: butt; stroke-linejoin: miter; stroke-miterlimit: 10; fill: rgb(255,255,255); fill-rule: nonzero; opacity: 1;" transform=" matrix(3.89 0 0 3.89 -1.9444444444444287 -1.9444444444444287) " stroke-linecap="round" />
	<path d="M 5.923 20.747 c -0.109 0 -0.215 -0.021 -0.316 -0.063 C 5.403 20.6 5.244 20.441 5.16 20.237 c -0.049 -0.117 -0.142 -0.142 -0.212 -0.142 s -0.164 0.025 -0.212 0.142 c -0.174 0.42 -0.659 0.621 -1.079 0.447 l -0.895 -0.371 c -0.421 -0.175 -0.621 -0.659 -0.447 -1.079 c 0.051 -0.124 -0.009 -0.21 -0.049 -0.25 c -0.05 -0.051 -0.134 -0.1 -0.251 -0.051 c -0.421 0.173 -0.905 -0.027 -1.079 -0.447 l -0.371 -0.895 c -0.084 -0.204 -0.084 -0.428 0 -0.632 c 0.085 -0.204 0.243 -0.363 0.447 -0.447 c 0.117 -0.049 0.142 -0.142 0.142 -0.212 c 0 -0.058 -0.018 -0.161 -0.142 -0.212 c -0.204 -0.084 -0.363 -0.243 -0.447 -0.447 c -0.084 -0.203 -0.084 -0.428 0 -0.632 l 0.371 -0.895 c 0.175 -0.421 0.659 -0.621 1.08 -0.447 c 0.124 0.052 0.209 -0.009 0.25 -0.049 c 0.041 -0.041 0.102 -0.127 0.05 -0.251 c -0.084 -0.204 -0.084 -0.429 0 -0.633 c 0.084 -0.204 0.243 -0.363 0.447 -0.447 l 0.895 -0.371 c 0.421 -0.174 0.905 0.026 1.08 0.447 c 0.051 0.123 0.155 0.142 0.212 0.142 c 0.057 0 0.161 -0.018 0.212 -0.142 C 5.244 12.159 5.403 12 5.607 11.916 c 0.204 -0.085 0.428 -0.085 0.632 0 l 0.895 0.371 c 0.204 0.085 0.363 0.244 0.447 0.447 c 0.084 0.204 0.084 0.429 0 0.632 c -0.051 0.123 0.009 0.209 0.049 0.25 c 0.05 0.05 0.134 0.099 0.251 0.05 c 0.204 -0.084 0.428 -0.084 0.633 0 c 0.204 0.085 0.363 0.243 0.447 0.447 l 0.371 0.895 c 0.084 0.204 0.084 0.429 0 0.632 c -0.085 0.204 -0.244 0.363 -0.448 0.448 c -0.123 0.051 -0.141 0.155 -0.141 0.212 c 0 0.057 0.018 0.161 0.142 0.212 c 0.421 0.175 0.621 0.659 0.447 1.079 l -0.371 0.895 c -0.084 0.204 -0.243 0.363 -0.447 0.447 c -0.204 0.085 -0.429 0.084 -0.633 0 c -0.123 -0.051 -0.21 0.009 -0.25 0.05 c -0.041 0.041 -0.101 0.127 -0.05 0.251 c 0.084 0.204 0.084 0.428 0 0.632 c -0.085 0.204 -0.243 0.363 -0.447 0.447 l -0.895 0.371 C 6.138 20.726 6.032 20.747 5.923 20.747 z M 4.948 19.581 c 0.24 0 0.547 0.121 0.687 0.459 c 0.032 0.077 0.092 0.137 0.169 0.169 c 0.077 0.032 0.162 0.032 0.239 0 l 0.895 -0.371 c 0.077 -0.032 0.137 -0.092 0.169 -0.169 c 0.032 -0.077 0.032 -0.162 0 -0.238 c -0.14 -0.339 -0.009 -0.641 0.161 -0.811 c 0.169 -0.169 0.471 -0.301 0.81 -0.161 c 0.077 0.032 0.162 0.032 0.239 0 c 0.077 -0.032 0.137 -0.092 0.169 -0.169 l 0.371 -0.895 c 0.066 -0.159 -0.01 -0.342 -0.169 -0.408 c -0.339 -0.14 -0.459 -0.447 -0.459 -0.687 s 0.121 -0.547 0.459 -0.687 c 0.077 -0.032 0.137 -0.092 0.169 -0.169 c 0.032 -0.077 0.032 -0.162 0 -0.239 L 8.486 14.31 c -0.032 -0.077 -0.092 -0.137 -0.169 -0.169 c -0.077 -0.032 -0.162 -0.032 -0.239 0 c -0.339 0.14 -0.641 0.009 -0.811 -0.162 c -0.17 -0.169 -0.302 -0.471 -0.161 -0.81 c 0.032 -0.077 0.032 -0.162 0 -0.239 c -0.032 -0.077 -0.092 -0.137 -0.169 -0.169 l -0.895 -0.371 c -0.077 -0.032 -0.162 -0.032 -0.239 0 c -0.077 0.032 -0.137 0.092 -0.169 0.169 c -0.14 0.339 -0.447 0.459 -0.687 0.459 s -0.547 -0.12 -0.687 -0.459 c -0.066 -0.159 -0.249 -0.235 -0.408 -0.169 l -0.895 0.371 c -0.077 0.032 -0.137 0.092 -0.169 0.169 c -0.032 0.077 -0.032 0.162 0 0.239 c 0.14 0.339 0.009 0.641 -0.162 0.811 c -0.169 0.169 -0.471 0.301 -0.81 0.161 c -0.159 -0.066 -0.342 0.01 -0.408 0.169 l -0.371 0.895 c -0.032 0.077 -0.032 0.162 0 0.238 c 0.032 0.078 0.092 0.137 0.169 0.169 c 0.339 0.141 0.46 0.448 0.459 0.688 c 0 0.24 -0.121 0.547 -0.459 0.687 l 0 0 c -0.077 0.032 -0.137 0.092 -0.168 0.169 c -0.032 0.077 -0.032 0.162 0 0.238 l 0.371 0.895 c 0.066 0.159 0.249 0.235 0.408 0.169 c 0.339 -0.141 0.641 -0.009 0.811 0.162 c 0.169 0.168 0.302 0.47 0.161 0.81 c -0.066 0.159 0.01 0.342 0.169 0.408 l 0.895 0.371 c 0.159 0.066 0.342 -0.01 0.408 -0.169 C 4.4 19.702 4.707 19.581 4.948 19.581 z M 4.948 18.128 c -1.008 0 -1.829 -0.82 -1.829 -1.828 c 0 -1.008 0.82 -1.829 1.829 -1.829 c 1.008 0 1.828 0.82 1.828 1.829 C 6.776 17.308 5.956 18.128 4.948 18.128 z M 4.948 14.986 c -0.725 0 -1.314 0.59 -1.314 1.314 c 0 0.725 0.59 1.314 1.314 1.314 s 1.314 -0.589 1.314 -1.314 C 6.262 15.575 5.672 14.986 4.948 14.986 z" style="stroke: none; stroke-width: 1; stroke-dasharray: none; stroke-linecap: butt; stroke-linejoin: miter; stroke-miterlimit: 10; fill: rgb(255,255,255); fill-rule: nonzero; opacity: 1;" transform=" matrix(3.89 0 0 3.89 -1.9444444444444287 -1.9444444444444287) " stroke-linecap="round" />
</g>
</g>
</svg>